D:\school\WTK\thesis\model\3dpredictsim\Results\batch_windlass\Pog_s1_tmt_bCst_d00_k500_WL20_ig24_pas_GRF.mot
nRows=20
nColumns=19

name D:\school\WTK\thesis\model\3dpredictsim\Results\batch_windlass\Pog_s1_tmt_bCst_d00_k500_WL20_ig24_pas_GRF.mot
datacolumns 19
datarows 20
range 0.0000000000 0.2053492480
endheader
time 	ground_force_vx	ground_force_vy	ground_force_vz	ground_force_px	ground_force_py	ground_force_pz	1_ground_force_vx	1_ground_force_vy	1_ground_force_vz	1_ground_force_px	1_ground_force_py	1_ground_force_pz	ground_torque_x	ground_torque_y	ground_torque_z	1_ground_torque_x	1_ground_torque_y	1_ground_torque_z
        0.0000000000	      -91.3390008917	       75.6303601724	       32.1137556038	        0.1406371499	        0.0000000000	        0.0412393250	       86.0429613315	      443.3884569806	       -4.5621593436	       -0.3279524486	        0.0000000000	       -0.0328237503	        0.0000000000	        0.0000000000	        0.0000000000	        0.0000000000	        0.0000000000	        0.0000000000	
        0.0108078552	     -131.1274346632	      151.3712557389	       75.0814219620	        0.1496935883	        0.0000000000	        0.0397566874	       61.4254357080	      351.4611584599	      -11.8905555589	       -0.3223547235	        0.0000000000	       -0.0306643387	        0.0000000000	        0.0000000000	        0.0000000000	        0.0000000000	        0.0000000000	        0.0000000000	
        0.0216157103	      -56.5223928000	      319.2589415114	       33.9356336750	        0.1606849705	        0.0000000000	        0.0393835208	       34.1291477696	      251.0817460569	      -14.2384730118	       -0.3130736307	        0.0000000000	       -0.0263409261	        0.0000000000	        0.0000000000	        0.0000000000	        0.0000000000	        0.0000000000	        0.0000000000	
        0.0324235655	      -50.9462251319	      537.0957406137	       -1.0909153781	        0.1699889865	        0.0000000000	        0.0412759919	       12.7979768919	      167.7618703135	      -12.8957520626	       -0.2990832068	        0.0000000000	       -0.0186008537	        0.0000000000	        0.0000000000	        0.0000000000	        0.0000000000	        0.0000000000	        0.0000000000	
        0.0432314206	      -74.8614637967	      710.9311444531	      -11.5285513210	        0.1765575709	        0.0000000000	        0.0427181142	        0.0848994411	      138.1708266132	      -11.3905790465	       -0.2979990236	        0.0000000000	       -0.0176880155	        0.0000000000	        0.0000000000	        0.0000000000	        0.0000000000	        0.0000000000	        0.0000000000	
        0.0540392758	     -105.4556585279	      825.8947909864	      -15.3433274454	        0.1833188211	        0.0000000000	        0.0433716839	       -1.9360145055	       99.5465978317	       -9.7391333639	       -0.2974970919	        0.0000000000	       -0.0176502526	        0.0000000000	        0.0000000000	        0.0000000000	        0.0000000000	        0.0000000000	        0.0000000000	
        0.0648471310	     -117.6802792456	      895.4803316894	      -14.8132522759	        0.1898295383	        0.0000000000	        0.0432127651	      -10.3190412896	       55.7694709312	       -7.4909276643	       -0.2978261324	        0.0000000000	       -0.0176684559	        0.0000000000	        0.0000000000	        0.0000000000	        0.0000000000	        0.0000000000	        0.0000000000	
        0.0756549861	     -118.0261290344	      908.8935233618	      -15.2236593226	        0.1970420923	        0.0000000000	        0.0427347520	       -7.0175176848	        9.0390399538	       -1.0864657019	        0.0000000000	        0.0000000000	        0.0000000000	        0.0000000000	        0.0000000000	        0.0000000000	        0.0000000000	        0.0000000000	        0.0000000000	
        0.0864628413	     -104.3567088989	      874.7517301747	      -14.7664211276	        0.2012839993	        0.0000000000	        0.0422732855	        0.0030621845	       -0.0027276249	       -0.0001245452	        0.0000000000	        0.0000000000	        0.0000000000	        0.0000000000	        0.0000000000	        0.0000000000	        0.0000000000	        0.0000000000	        0.0000000000	
        0.0972706964	      -88.1770416088	      819.6844620624	      -15.4030511629	        0.2048094995	        0.0000000000	        0.0419611679	        0.0000957567	       -0.0000718722	       -0.0000067936	        0.0000000000	        0.0000000000	        0.0000000000	        0.0000000000	        0.0000000000	        0.0000000000	        0.0000000000	        0.0000000000	        0.0000000000	
        0.1080785516	      -73.9882705280	      764.6536761623	      -15.7645531960	        0.2081299537	        0.0000000000	        0.0417705186	        0.0001321634	       -0.0000879506	       -0.0000104419	        0.0000000000	        0.0000000000	        0.0000000000	        0.0000000000	        0.0000000000	        0.0000000000	        0.0000000000	        0.0000000000	        0.0000000000	
        0.1188864067	      -62.0237252914	      718.0560361779	      -16.0760660303	        0.2115329971	        0.0000000000	        0.0416719100	        0.0023317926	       -0.0014182801	       -0.0001939697	        0.0000000000	        0.0000000000	        0.0000000000	        0.0000000000	        0.0000000000	        0.0000000000	        0.0000000000	        0.0000000000	        0.0000000000	
        0.1296942619	      -51.8967561516	      680.4417857870	      -16.6883294072	        0.2150991740	        0.0000000000	        0.0416326007	       -0.0096155622	        0.0054448663	        0.0008260998	        0.0000000000	        0.0000000000	        0.0000000000	        0.0000000000	        0.0000000000	        0.0000000000	        0.0000000000	        0.0000000000	        0.0000000000	
        0.1405021171	      -42.5201938565	      650.3944762544	      -17.6707703977	        0.2193268811	        0.0000000000	        0.0416253597	       -0.0405645934	        0.0216436832	        0.0035772077	        0.0000000000	        0.0000000000	        0.0000000000	        0.0000000000	        0.0000000000	        0.0000000000	        0.0000000000	        0.0000000000	        0.0000000000	
        0.1513099722	      -35.6428381572	      627.3628138792	      -18.8444136264	        0.2243324605	        0.0000000000	        0.0416004989	       -0.0263605005	        0.0133482412	        0.0023941132	        0.0000000000	        0.0000000000	        0.0000000000	        0.0000000000	        0.0000000000	        0.0000000000	        0.0000000000	        0.0000000000	        0.0000000000	
        0.1621178274	      -30.7993586888	      610.5261040526	      -19.5099146186	        0.2296815837	        0.0000000000	        0.0415472976	       -0.0182406602	        0.0088120031	        0.0017072867	        0.0000000000	        0.0000000000	        0.0000000000	        0.0000000000	        0.0000000000	        0.0000000000	        0.0000000000	        0.0000000000	        0.0000000000	
        0.1729256825	      -26.6929830482	      598.7000205972	      -20.0513629542	        0.2353417070	        0.0000000000	        0.0414568360	       -0.0158594621	        0.0073447527	        0.0015245319	        0.0000000000	        0.0000000000	        0.0000000000	        0.0000000000	        0.0000000000	        0.0000000000	        0.0000000000	        0.0000000000	        0.0000000000	
        0.1837335377	      -23.6231101410	      590.2474660655	      -20.0831356755	        0.2411378903	        0.0000000000	        0.0413309496	       -0.0178192566	        0.0079488410	        0.0017430559	        0.0000000000	        0.0000000000	        0.0000000000	        0.0000000000	        0.0000000000	        0.0000000000	        0.0000000000	        0.0000000000	        0.0000000000	
        0.1945413929	      -21.7460301695	      584.8109929513	      -19.6357485772	        0.2469052597	        0.0000000000	        0.0411774600	       -0.0251298424	        0.0108475629	        0.0024749838	        0.0000000000	        0.0000000000	        0.0000000000	        0.0000000000	        0.0000000000	        0.0000000000	        0.0000000000	        0.0000000000	        0.0000000000	
        0.2053492480	      -20.3953296376	      581.7279260780	      -19.0907756333	        0.2525983642	        0.0000000000	        0.0409981974	       -0.0420575721	        0.0176436924	        0.0041360443	        0.0000000000	        0.0000000000	        0.0000000000	        0.0000000000	        0.0000000000	        0.0000000000	        0.0000000000	        0.0000000000	        0.0000000000	
